<?xml version="1.0" encoding="utf-8"?>
<!-- Generator: Adobe Illustrator 19.2.1, SVG Export Plug-In . SVG Version: 6.00 Build 0)  -->
<svg version="1.1" id="Layer_1" xmlns="http://www.w3.org/2000/svg" xmlns:xlink="http://www.w3.org/1999/xlink" x="0px" y="0px"
	 viewBox="0 0 360 80" style="enable-background:new 0 0 360 80;" xml:space="preserve">
<style type="text/css">
	.st0{fill:#FBB03B;}
	.st1{fill:#FFFFFF;}
</style>
<rect x="0" width="237.3" height="80"/>
<rect x="237.3" class="st0" width="122.7" height="80"/>
<g>
	<g>
		<path class="st1" d="M27.9,20.1v0.5l-1.1,1.3v0.3c1.2,0,1.9,0.3,2.1,1v0.3h-0.3L27.9,23v0.5h-0.3l0.3,0.3V24l-0.5,0.5h-0.3
			l0.3-0.3V24l-0.8-0.8V23l0.3,0.2h0.3V23l-0.8-0.5V23h-0.8v-0.8L27.9,20.1z M32.4,19.3l0.3,0.3l0.3-0.3h0.5l1.1,0.8h1.8l1,0.3
			l1.1-0.3c0.2,0.7,0.8,1.1,1.8,1.1v0.5L39,21.4v0.8c0,1-0.7,1.7-2.1,2.3c0,0.7-0.3,1.1-0.8,1.1h-0.3v-0.5l0.3-0.3v-0.3h-0.3
			l-0.5,0.5l1.3,5.8l-0.5,0.5l-0.3-0.3h-0.3c-1,0-2,0.4-2.9,1.1c-0.4,0-0.8-1-1.1-3.1v-0.8c0-0.4,0.4-0.5,1.1-0.5l-0.3-0.3v-0.3
			l0.8-1.1h-0.5c0,0.5-0.2,0.8-0.5,0.8l-2.4-2.4l-0.3,0.3H29v-0.3l1-1.6l-0.3-0.3c0.7-0.4,1.3-1,1.8-1.8l-0.3-0.3v-0.5l0.3,0.3h0.3
			C31.9,19.7,32,19.3,32.4,19.3z M47.4,30.1h0.3l0.8,0.5v-0.5H49v0.8h0.3l0.3-0.2h0.3l0.3,0.2v0.3l-4,15.5c-0.8,4.2-1.5,6.5-2.1,6.8
			l-0.3-0.2l-0.3,0.2h-1.6c0,1.1-0.5,1.6-1.6,1.6l-0.5,1.1l1.1,0.3v0.5l-1.3,0.3v-0.3c0-0.4-0.4-0.7-1.3-1.1
			c-0.9-1.2-1.3-3.2-1.3-5.8l-1.6-6l0.3-0.3v-0.3c-0.8,0-1.6-2.9-2.4-8.7L34,34l-0.5-1.8l0.3-0.3H34l1.3,1.3l0.3-0.3h0.5v0.5h0.5
			v-0.3L36.3,33v-0.3l0.3-0.3h0.3c0.6,1.8,1.2,4.4,1.8,7.9c1.6,6.3,2.8,9.5,3.7,9.5l0.3,0.3l1.3-1.8l0.5-0.5v-0.3
			c-0.4-0.5-0.7-1.3-0.8-2.6l-1.3-0.3c0.9-5.1,1.7-7.6,2.3-7.6v-0.5h-0.2c0-3,0.6-4.5,1.8-4.5c0-0.4,0.4-0.7,1.1-0.8l0.8,0.3l-0.8-1
			V30.1z M40.8,45.3h0.3l0.5,0.5v0.3h-0.3l-0.5-0.5V45.3z M45.5,19.3l0.8,0.8h5.5l1.6-0.3l0.8,0.3l0.3-0.3v0.5
			c0.9,0.2,1.3,0.9,1.3,1.8c0,1.4-1.1,2.3-3.2,2.6c-1,1-1.8,2.3-2.3,4L48.7,29l-0.3-0.3l-1.6,1.6h-0.3l0.3-0.3v-0.3h-0.5v-0.3
			l0.8-2.1l-0.3-0.3h-0.3l0.3-1.3v-0.3c-0.9,0-1.3-0.2-1.3-0.5v-0.3l0.3,0.3h0.3v-0.5h-0.3l-0.3,0.3h-0.3l-2.9-2.3v-0.3l0.3,0.3h0.3
			c0-1.1,0.4-1.6,1.1-1.6l-0.3-1.3H44L45.5,19.3z M44.7,47.1v0.3h0.5v-0.8L44.7,47.1z"/>
		<path class="st1" d="M74.1,28.1c0,0.5,2.1,2.7,6.3,6.6v0.3c-0.4,0-0.6,0.5-0.6,1.4L79,36.5l0.3,1.4c0,0.4-0.3,0.6-0.8,0.6v0.3
			l0.6,0.6c0-0.4,0.4-0.8,1.1-1.1c0.5,0.1,0.8,0.8,0.8,2.2v0.5l-0.3,0.3l0.3,0.3v0.3c0,0.5-0.9,1-2.7,1.4H73l-10.1,0.3
			c0,0.5-0.4,1-1.3,1.6l-0.3,1.1v0.3c1,0.8,1.8,1.8,2.2,3l4.1,3.3l-0.3,0.3h3c0.8,0,1.8-0.6,3-1.9l4.9-4.6c1.6,0,2.5,0.7,2.5,2.2
			c0,1.4-1.2,3.4-3.6,6c-2.6,1.5-5.1,2.3-7.6,2.5l-0.3-0.3v-0.3l-0.3,0.3H68l-0.5-0.6l0.3-0.3c-0.9,0-1.4-0.2-1.4-0.6l0.3-0.3
			l-0.6-0.8c-1.4,0-2.5,0.4-3.3,1.1l-3.3-2.7l1.1-1.4c-0.7,0-1.1-0.6-1.1-1.9h0.3l-0.3-0.3v-0.3l0.3-0.3v-0.3h-0.3l-0.8,0.6
			c-0.9,0-1.4-1.8-1.4-5.5c0-4.4,0.4-6.6,1.1-6.6L58.2,36c0-0.7,0.5-1.1,1.4-1.1c0-1.5,1.9-3.4,5.7-5.7l3-0.8c2.1,0,3.4,0.4,4.1,1.1
			l0.8-1.1l0.3,0.3L74.1,28.1z M60.1,49.1v0.3l1.1,1.1h0.3l0.3-0.8c-0.5,0-0.8-0.3-0.8-0.8L60.1,49.1z M62,37.9
			c0,0.6,0.8,1.4,2.2,2.2l0.3-0.3h9l0.3,0.3c1.1-0.7,1.9-1.5,2.5-2.5c-1.5-2.9-3.5-4.4-6-4.4h-2.5C65.4,33.3,63.5,34.8,62,37.9z
			 M79,45.3l0.3,0.3v0.3L79,46.1h-0.3l-0.3-0.3v-0.3l0.3-0.3H79z M80.4,45.9l1.4,1.6l-0.3,0.3h-0.3l-1.4-1.6l0.3-0.3H80.4z"/>
		<path class="st1" d="M102.6,28.9l3.2,0.5l0.5-0.5c0,0.5,1.1,1.8,3.4,3.7v0.3h-0.5l0.3,0.3V35c0,2.3-0.8,3.9-2.4,4.7H105l-2.1-2.1
			l-0.3,0.3v-0.3l0.3-0.3v-0.3c0-0.8-0.6-1.8-1.9-2.9v-0.3h-0.3c-4,3.1-6.1,6.2-6.1,9.2l-0.3,1.6l-0.3-0.3h-0.3l-1.1,0.3
			c-1.4,0-2.1-0.6-2.1-1.8v-1.6c0-4.4-0.6-6.6-1.8-6.6c0-0.4-0.3-0.5-0.8-0.5l-0.8,0.3c-3,0-4.5-0.8-4.5-2.4c0-1.4,1.1-2.1,3.4-2.4
			h3.2l0.3,0.3h0.3l0.8-0.8h0.5l1.1,0.8l0.3-0.3v-0.3l3.7,3.2h0.3l5.8-3.7H102.6z M92.5,46h0.5c0,0.6,0.6,0.9,1.8,1.1
			c0,2.2,0.6,3.8,1.8,4.8v0.3l1.3-0.3h2.1l0.3,0.3h0.3v-0.3l-0.3-0.3v-0.3h0.3l0.5,0.5l-0.3,0.3v0.3c0.9,0,1.3,0.3,1.3,0.8l-0.3,0.3
			v0.3h0.6V54c0,1.9-1.2,2.9-3.7,2.9h-6.1l-4.7,0.3l-2.9-0.3l-0.3,0.3c-0.9-1-1.3-1.7-1.3-2.1l-0.3,0.3H83V55l1.1-1.8v0.3
			c0.8-0.2,1.5-0.8,2.1-1.8c0.8,0,1.6,0.4,2.4,1.1h0.3c0.3-1.1,0.8-1.6,1.6-1.6V50c0-2.1,0.6-3.2,1.8-3.2h0.5l-0.3-0.3V46z
			 M89.6,52.4l0.8-0.3v-0.5L89.6,52.4z M89.9,34.4v0.3c0.4,0.7,0.8,1.1,1.3,1.1h0.3v-0.3c-0.7,0-1.1-0.4-1.1-1.1H89.9z M91.5,33.4
			l0.3,1.6H92l0.3-1.3L92,33.4H91.5z M92.8,35.2v0.5l0.5-0.5v-0.5L92.8,35.2z"/>
		<path class="st1" d="M117.6,29.6h0.8c4.5,0.4,6.8,1.2,7,2.3h1c0-0.7,0.5-1.3,1.5-1.8h0.3l0.8,0.5l0.3-0.3v-0.2
			c0.7,0.2,1,0.7,1,1.5v2.8l0.3,1.3c-0.5,0-0.9,0.6-1.3,1.8l-1.8,2.1l-0.3-0.3l-0.3,0.3c-1.3-3.6-3.5-5.4-6.7-5.4h-2.1
			c-0.9,0-2,0.9-3.3,2.6l0.3,0.8l-0.5,0.5c0.7,0.4,1.4,1.1,2.1,2.1l6.2,1.3l-0.3,0.3v0.8L123,43h0.5l1.3-0.3v0.5l1.3-0.3l0.3,0.3
			v0.3l2.3-0.5l-1-1.3l0.2-0.3h0.3c2.2,2.7,3.3,4.6,3.3,5.9v2.6c0,2.2-1.5,4.2-4.4,6.2l-0.3-0.2v-0.3c0.6-0.3,1.3-1.5,2.1-3.3
			l-0.5-1.8h-0.3c0,0.9-0.7,1.8-2.1,2.8l-2.1,4.1h-1.6l-1,0.3l-2.8-0.8l0.8-1.3c-0.9-1.2-1.8-1.9-2.6-2.1c-1.4,1.1-2.5,2.4-3.3,3.8
			l-1,0.3c-1.1,0-1.8-0.8-2.1-2.3l0.3-0.3h0.3v-0.5h-0.3l0.3-4.4v-3.9c0-0.3,0.8-0.7,2.3-1.3c0-0.5,0.2-0.8,0.5-0.8h0.3v0.3
			l-0.3,0.2V45l0.3-0.3h0.5V45l-0.5,0.8v0.8c0.8,1.6,2.5,3.6,5.1,5.9l1.3-0.3h1l1.3,0.8l0.3-0.3h0.3l0.2,0.3h0.3
			c1.2,0,2.6-1.1,4.4-3.3l-0.5-0.5l0.2-0.3v-0.3c-0.6-2.1-1.6-3.1-3.1-3.1V45h0.5v-0.5h-0.5l-1,0.8l-0.3-0.3v-0.3l0.8-0.8l-0.8-0.3
			l-0.2,0.3h-0.8l-1.5-0.8c0,0.4-0.4,0.9-1.3,1.5l-4.1-0.8l-0.8,0.8h-0.3c-2.2-2.8-3.3-4.5-3.3-5.1l-0.2-2.3v-2.1
			c0.7-1,2.5-2.8,5.4-5.1C116.3,29.8,116.7,29.6,117.6,29.6z M123.3,40.9h0.8v0.5h-0.8V40.9z M130,29.3l1.5,1.8l-0.3,0.2H131
			l-1.6-1.8l0.3-0.3H130z"/>
		<path class="st1" d="M132.7,55.8h0.3l1.6,1.6v0.3h-0.3l-1.6-1.6V55.8z M146.5,47.7l0.3,0.3v2.3c0,1,0.6,1.7,1.8,2.1v0.3l0.3-0.3
			h0.8l0.2,0.3l0.8-0.3l2.1,0.3l0.8-0.8l0.3,0.2v0.3l-1.3,1.6v0.8l0.8-0.5l0.5,0.5c-0.4,0-0.9,0.3-1.3,0.8l-1-0.5l-3.7,0.8
			c0,0.7-0.5,1-1.6,1v0.3l-3.1-0.3h-5.5l-1.1,0.3c-1.6-0.1-2.3-0.4-2.3-1l0.3-0.8h-0.3l-0.5-0.5c0-2.1,0.9-3.1,2.8-3.1l0.8,1
			l0.3-0.3h2.3l0.3,0.3h0.3c0-0.4,0.4-0.5,1.3-0.5l0.5-2.3h0.5v0.5L146.5,47.7z M139.7,30l1.3,0.8l1.8-0.5v0.5
			c-0.7,0.1-1.1,0.4-1.1,0.8V32h0.3l0.8-0.3l0.2,0.8l3.4-1.6l0.5,2.3l-0.3,1.3v11.5l-0.5,0.5l-1.1-0.5v0.3l0.5,0.8
			c-0.7,0.4-1,0.9-1,1.6l-0.3-0.3h-0.3l0.5-1.8h-0.3l-1.6,1l-0.3-0.3v-1.3l0.3-0.8l-0.3-1.3v-8.6c0-0.4-0.3-0.5-0.8-0.5l-0.3-0.3
			v-0.3l0.3-0.3c-0.7,0-1.1-0.3-1.1-1c-1.2,0-2.8,0.7-4.7,2.1l-0.3-0.3c-0.9-0.9-1.3-1.7-1.3-2.3l0.8-0.5l-0.3-0.3v-0.2
			C136.4,30.5,137.9,30,139.7,30z M143.9,19.5c2.4,0.7,3.6,1.9,3.6,3.6v1.3c0,0.9-0.7,1.9-2.1,2.8h-2.6l-2.1-1.8c-0.7,0-1-0.2-1-0.5
			l0.3-0.2h0.3l0.5,0.5V25l-0.2-1.6c0-0.4,1-1.7,3.1-3.9H143.9z"/>
		<path class="st1" d="M165.3,28.3c1.1,0.2,1.6,0.4,1.6,0.8l2.6-0.5c2.6,0.7,4.4,1.7,5.2,2.9l-0.3,0.3c3.1,3.2,4.7,6.6,4.7,10.2
			c-0.8,5.6-2,9.4-3.7,11.3c-1.6,1.6-3.2,2.8-4.7,3.7l-0.3-0.3l0.3-0.3v-0.5h-0.3v0.5l-0.5-0.5h0.3l-0.3-0.8h-0.8v0.3l0.5,1.6
			l-0.3,0.3l-0.3-0.3h-0.5l-0.8,0.5h-0.5c-4.4-0.9-7.1-2.2-8.1-4l-0.3,0.3h-0.3c-1.2,0-2.4-3-3.7-8.9c1.2-0.7,1.8-1.2,1.8-1.6V43
			l-0.3-0.3v-0.3l0.8-0.5l0.5,0.5l-0.3,0.3V43l0.3,0.3h0.3l0.8-0.5h0.3v0.5l-0.3,0.2c0,2.6,1.1,4.8,3.2,6.6c0.5,0,0.8,0.4,0.8,1.3
			l0.3-0.3h0.5c0.6,0,1.3,0.4,2.1,1.1h1.3l1-0.3l1.1,0.3c0.5,0,2-1.6,4.5-4.7l0.5-0.5h0.3l-0.3-0.3v-0.3l0.5-3.9
			c0-4.1-1.6-7-4.7-8.7l-2.6-0.8h-1.8c-1.8,0-3.7,1.9-5.8,5.7c-0.4,1.8-1.2,2.6-2.6,2.6c0,0.4-0.4,0.7-1.1,0.8
			c-0.7-0.3-1.1-0.5-1.1-0.8l0.5-0.5l-0.3-0.3v-0.5c0.1-2.7,2.1-5.9,5.8-9.7l-0.3-0.3v-0.3L165.3,28.3z M171,51.7v0.5h-0.3l0.3,0.3
			v0.3l-0.3,1.3h0.5l0.5-0.5c-0.4-0.4-0.5-1-0.5-1.8H171z M173.1,32.8v0.5l2.4,1.3l0.3-0.3v-0.3c-1.1-0.7-1.6-1.3-1.6-1.8h-0.5
			L173.1,32.8z"/>
		<path class="st1" d="M181.5,31.9l0.3,0.3v0.3l-0.3,0.3h-0.3l-0.3-0.3v-0.3l0.3-0.3H181.5z M181.5,33l2.3,2.6l-0.3,0.3h-0.2
			l-2.4-2.6l0.3-0.3H181.5z M180.9,55.5h0.3l1.6,1.6l-0.3,0.3h-0.3l-1.3-1.6V55.5z M199,29c5.1,0.6,7.6,2.8,7.6,6.6l-0.3,4.7v0.5
			l0.3,1.1l-0.3,1.1V45l0.3,1.1l-0.3,1.1v2.3h-0.5l-0.3-0.8l-0.8,0.3v0.3c0.7,1.1,1.4,1.8,2.1,2.1h0.3V51c-0.5,0-0.8-0.2-0.8-0.5
			v-0.3h0.3l3.4,2.9v1.6l-0.8,1.1l0.5,0.5l-0.3,0.3H209l-0.2-0.3h-0.3l-0.5,0.5h-1.3l-7.9-0.3l-0.5-0.8l2.6-2.3h1.1l1.3,0.2
			c0.7-0.9,1-1.7,1-2.3l-0.8-1.3l0.5-1.1l-0.3-0.8l-0.5,0.5h0.5c0,0.4-0.5,0.6-1.6,0.8l0.3-0.3v-6.5l-0.3-1.6l0.8-2.4l-0.8-0.8v-0.3
			c0-0.4,0.3-0.5,0.8-0.5c-0.8-1.8-1.6-2.6-2.6-2.6h-2.6c-3.6,2.3-6,5.4-7.4,9.2v3.4l-0.3,3.9l2.1,1.6l0.5-0.5v0.5h0.3l0.8-0.3
			l0.5,1.3l0.3-0.2h0.3l0.3,0.2v0.3c-0.4,0-0.7,0.4-0.8,1.3c-0.5,0-1.3,0.5-2.3,1.6l-0.3-0.3l-0.3,0.3h-1.1c-5.6,0-8.4-0.5-8.4-1.6
			v-1.3l3.9-3.7c0-3,0.4-4.5,1.3-4.5l-1.1-1.3v-6l0.5-0.8c-0.4-1.2-1.7-2.6-3.9-4.2l-0.8-1.3v-0.3l0.5-0.8l-0.5-0.5l1.3-1.1l0.8,0.5
			l0.3-0.3h0.3l2.1,0.3l0.8-0.3c1.7,0,2.8,1.2,3.1,3.7l1.3,0.8h0.3c0.6-0.2,1.5-1.3,2.6-3.1c1.1-0.5,1.7-0.9,1.8-1.3l1.3,0.3h0.3
			C198.5,30.1,198.8,29.7,199,29z"/>
	</g>
</g>
<g>
	<g>
		<path class="st1" d="M279.9,22.6l1.1,0.2l0.2-0.2h0.3c0.8,0,1.9,0.5,3.1,1.6l-0.3,0.3v0.3l0.3,0.3l-0.8,0.2l0.5,0.8l-0.3,0.3v0.3
			c0.7,0,1.1,0.3,1.1,1h0.3c0.5,0,1.3-0.3,2.3-1c1.7,2.3,2.6,3.9,2.6,4.7c0,0.4-0.3,0.5-0.8,0.5l0.8,2.1h0.3l0.3-0.3h0.3
			c0.6,1.3,1.1,3.4,1.3,6.2l-0.5,3.9l0.3,0.3c0,3.1-1.6,7.3-4.7,12.5l-1.6,1.6l-1.3-0.3l-1.6,1.8l-0.3-0.3l-0.3,0.3h-4.4l-3.1-0.5
			v0.5h-0.3l-4.7-4.9l0.8-1.3c-0.6,0-0.9-0.6-1-1.8l-0.3,0.3h-0.3c-0.5,0-0.9-0.8-1.3-2.3l1.1-1.3c-0.6-1.2-1.4-2.1-2.3-2.8
			l-0.3-2.9v-0.3c0.5-6.3,1.1-9.4,1.8-9.4l-0.3-1.3c4.6-5.4,8.1-8.1,10.4-8.1h1C279.4,22.8,279.6,22.6,279.9,22.6z M269.5,42.1v0.3
			l0.5,0.5l-0.2,0.3v1l0.8-0.5l2.1,6.3v0.2h-0.5v0.5c0.5,0,1.1,0.4,1.6,1.3v0.3h-0.3c-1-0.7-1.6-1.3-1.6-1.8l-0.5,0.5
			c0.4,0,1,0.5,2.1,1.6l0.8-0.2l2.8,2.6l0.5-0.5l1.3,0.3h2.1c1,0,2.2-0.9,3.6-2.6c0.7,0,1.2-0.4,1.6-1.3c0-0.4,0.3-0.5,0.8-0.5
			l-0.5-1l1.8-5.5c0.9-0.2,1.3-0.8,1.3-1.8c-1,0-1.6-1.7-1.6-5.2c0-0.3,0.3-0.5,0.8-0.5v-0.8c-0.7,0-1-0.5-1-1.6l-0.3,0.3h-0.5
			c-0.8-2.5-2.4-4.6-4.7-6l-2.1-0.3h-2.6c-2.1,0-4.2,3-6.2,8.9C271.3,39.3,270.7,41.1,269.5,42.1z M271,52v0.3l0.8,0.5v-0.3L271,52z
			 M285.9,24.9h0.3c0.8,0.3,1.2,0.7,1.3,1v0.3h-0.3L285.9,24.9z"/>
		<path class="st1" d="M298,53.5c0.3,0.7,0.5,1,0.8,1l1-1l0.3,0.3l0.2-0.3h0.3c0.6,0,1,0.9,1.2,2.8V57c0,1.3-0.7,2.5-2.2,3.8H297
			l-0.2,0.2h-0.3c0-0.6-0.7-1.2-2-2l0.3-0.3V56l1.7-2l0.3,0.3h0.2L298,53.5z"/>
		<path class="st1" d="M316.5,51.5V52l0.3-0.3h0.2l0.3,0.3v0.3c-0.4,0.5-0.9,0.8-1.3,0.8v0.3h0.3l2.3-0.5c0,1.1,0.6,1.9,1.8,2.6h5.2
			l1.8-0.3c0.3,0.9,0.7,1.3,1.3,1.3c-0.4,2.3-1.4,3.4-3.1,3.4l-5.2-0.3l-2.3,0.5h-4.4l-2.1,0.5h-0.3c-4.7-0.8-7-1.5-7-2.1v-1.1
			l2.1-2.1l1.6,0.3l0.8-0.8l4.7,0.2c0.2-0.8,1-1.4,2.3-1.8l0.5-1.3l-0.3-0.3l0.3-0.3H316.5z M311.5,23.1h3.4c0.4,0,0.5,0.3,0.5,0.8
			h0.5l0.5-0.5c1.7,0.8,2.6,2.3,2.6,4.4c0,0.6-0.8,1.8-2.3,3.4v0.5l1,0.3l0.8-0.8h0.3l-0.3,1l0.3,2.1l-0.3,12.5l-0.3,0.3h-0.3v-0.8
			h-0.8c1.1,1.1,1.6,2,1.6,2.9l-0.3,0.3h-0.3l0.3,0.3v0.5c0,0.2-1.3,0.7-3.9,1.3l-0.2,0.3l-0.3-0.3v-0.3l0.3-0.3l-0.3-0.3v-0.5
			l0.3-0.3l-0.3-0.3v-0.8c1.4-1.2,2.1-2.3,2.1-3.4c-0.4,0-1-0.4-1.8-1.1l0.2-3.9v-2.6l-0.2-7l1.6-1.3h-1.1v0.8
			c-1-0.6-1.7-1.2-2.1-1.8v-0.3h0.3l1.3,1.1v-0.5l-0.8-0.8l-1.8,0.3h-1.3l-0.3-0.3l-0.3,0.3h-2.1c-2.3,0-3.4-0.8-3.4-2.3v-0.3
			l0.5-0.5l-0.3-0.3l0.3-0.3h0.3l0.2,0.3c0-0.5,0.4-0.9,1.3-1.3l2.6,1.6v-1.1h0.5l0.3,0.3h0.3L311.5,23.1z M317,47.6v0.8h1.1
			l-0.8-0.8H317z"/>
	</g>
</g>
</svg>
